<svg width="32" height="32" viewBox="0 0 32 32" fill="none" xmlns="http://www.w3.org/2000/svg">
<g clip-path="url(#clip0_23_84)">
<path d="M16.0016 0.00109411C7.16423 0.00109411 0 7.34661 0 16.4076C0 23.612 4.52966 29.7333 10.8285 31.9378L10.9416 31.9717C11.7419 32.126 12.0353 31.6194 12.0353 31.1829C12.0353 30.7934 12.0225 29.7606 12.0151 28.3941C7.56437 29.3842 6.62536 26.1929 6.62536 26.1929C6.31805 25.1809 5.68849 24.3494 4.86152 23.8035L4.84444 23.7936C3.39538 22.7761 4.95648 22.7969 4.95648 22.7969C6.00967 22.949 6.89213 23.5825 7.39898 24.4708L7.40752 24.4872C7.99867 25.5758 9.11481 26.3001 10.3963 26.3001C11.011 26.3001 11.5872 26.1338 12.0844 25.8417L12.0674 25.8504C12.1442 24.985 12.5166 24.2214 13.08 23.6568L13.0811 23.6558C9.52776 23.2455 5.79199 21.8341 5.79199 15.5488C5.79199 15.5192 5.79092 15.4853 5.79092 15.4514C5.79092 13.7873 6.41729 12.2732 7.44166 11.143L7.43846 11.1474C7.22185 10.5544 7.09593 9.86951 7.09593 9.15509C7.09593 8.30501 7.27307 7.4965 7.59212 6.76785L7.57718 6.80505C7.57718 6.80505 8.9174 6.36524 11.9777 8.48662C13.1771 8.13543 14.5547 7.93302 15.9781 7.93302C17.4016 7.93302 18.7792 8.13543 20.0852 8.51288L19.9785 8.48662C23.0186 6.36524 24.3588 6.80505 24.3588 6.80505C24.6629 7.50744 24.84 8.32579 24.84 9.18682C24.84 9.8892 24.7227 10.5631 24.5061 11.1889L24.5189 11.1474C25.5358 12.2764 26.16 13.7906 26.16 15.4547C26.16 15.4886 26.16 15.5214 26.1589 15.5542V15.5488C26.1589 21.8517 22.4189 23.2389 18.8581 23.6426C19.5325 24.3505 19.9486 25.3187 19.9486 26.3876C19.9486 26.4894 19.9444 26.5911 19.9369 26.6918L19.938 26.6786C19.938 28.8744 19.9177 30.638 19.9177 31.1708C19.9177 31.6019 20.1973 32.1139 21.0178 31.9498C27.4501 29.73 32 23.6032 32 16.3857C32 7.33567 24.8443 0 16.0187 0C16.0123 0 16.0048 0 15.9984 0H15.9995L16.0016 0.00109411Z" fill="#F9F9F9"/>
</g>
<defs>
<clipPath id="clip0_23_84">
<rect width="32" height="32" fill="white"/>
</clipPath>
</defs>
</svg>
