<svg width="32" height="32" viewBox="0 0 32 32" fill="none" xmlns="http://www.w3.org/2000/svg">
<g clip-path="url(#clip0_23_82)">
<path d="M22.5413 9.57769C22.5477 9.57769 22.5562 9.57769 22.5647 9.57769C22.7867 9.57769 22.9928 9.64675 23.1618 9.76574L23.1586 9.76361C23.2818 9.87092 23.3647 10.0218 23.3849 10.1918V10.195C23.4061 10.3246 23.4178 10.4733 23.4178 10.6252C23.4178 10.6943 23.4157 10.7623 23.4104 10.8303V10.8207C23.1713 13.3376 22.1344 19.4412 21.6074 22.2587C21.3843 23.4518 20.9456 23.8513 20.5206 23.8895C19.5973 23.9756 18.8961 23.2797 18.0016 22.6932C16.6013 21.7742 15.8098 21.2027 14.451 20.307C12.8797 19.2733 13.8985 18.7028 14.7931 17.7742C15.0279 17.5299 19.098 13.8274 19.1777 13.4916C19.1819 13.4714 19.1841 13.4491 19.1841 13.4258C19.1841 13.3429 19.1533 13.2675 19.1033 13.2101C19.0481 13.174 18.979 13.1538 18.9068 13.1538C18.859 13.1538 18.8133 13.1633 18.7708 13.1793L18.7729 13.1782C18.6327 13.2101 16.3959 14.6883 12.0627 17.6127C11.5899 17.9857 10.9928 18.2215 10.3426 18.2491H10.3363C9.41514 18.1376 8.57902 17.9325 7.78539 17.6404L7.86401 17.6659C6.86746 17.3408 6.07596 17.1697 6.14396 16.6194C6.18008 16.3332 6.57459 16.0404 7.32749 15.7408C11.9653 13.7201 15.058 12.3881 16.6056 11.745C18.3129 10.8388 20.2922 10.093 22.3734 9.60956L22.5402 9.57663L22.5413 9.57769ZM15.9628 0C7.14263 0.0212483 0 7.17663 0 16C0 24.8361 7.16282 32 16 32C24.8372 32 32 24.8372 32 16C32 7.17663 24.8574 0.0212483 16.0393 0H16.0372C16.0124 0 15.9876 0 15.9628 0Z" fill="#F9F9F9"/>
</g>
<defs>
<clipPath id="clip0_23_82">
<rect width="32" height="32" fill="white"/>
</clipPath>
</defs>
</svg>
