<svg width="16" height="16" viewBox="0 0 16 16" fill="none" xmlns="http://www.w3.org/2000/svg">
<g clip-path="url(#clip0_78_13)">
<path d="M5.89119 2.99999C5.60213 2.03963 4.71989 1.33333 3.66667 1.33333C2.61344 1.33333 1.7312 2.03963 1.44214 2.99999H0V4.33333H1.44214C1.7312 5.2937 2.61344 5.99999 3.66667 5.99999C4.71989 5.99999 5.60213 5.2937 5.89119 4.33333H16V2.99999H5.89119ZM3.66667 4.66666C3.11589 4.66666 2.66667 4.21809 2.66667 3.66666C2.66667 3.11523 3.11589 2.66666 3.66667 2.66666C4.21745 2.66666 4.66667 3.11523 4.66667 3.66666C4.66667 4.21809 4.21745 4.66666 3.66667 4.66666Z" fill="#F9F9F9"/>
<path d="M12.3333 5.66666C11.2801 5.66666 10.3979 6.37296 10.1088 7.33332H0V8.66666H10.1088C10.3979 9.62702 11.2801 10.3333 12.3333 10.3333C13.3866 10.3333 14.2688 9.62702 14.5579 8.66666H16V7.33332H14.5579C14.2688 6.37296 13.3866 5.66666 12.3333 5.66666ZM12.3333 8.99999C11.7826 8.99999 11.3333 8.55142 11.3333 7.99999C11.3333 7.44856 11.7826 6.99999 12.3333 6.99999C12.8841 6.99999 13.3333 7.44856 13.3333 7.99999C13.3333 8.55142 12.8841 8.99999 12.3333 8.99999Z" fill="#F9F9F9"/>
<path d="M6 10C4.94678 10 4.06453 10.7063 3.77547 11.6667H0V13H3.77547C4.06453 13.9604 4.94678 14.6667 6 14.6667C7.05322 14.6667 7.93547 13.9604 8.22453 13H16V11.6667H8.22453C7.93547 10.7063 7.05322 10 6 10ZM6 13.3333C5.44922 13.3333 5 12.8848 5 12.3333C5 11.7819 5.44922 11.3333 6 11.3333C6.55078 11.3333 7 11.7819 7 12.3333C7 12.8848 6.55078 13.3333 6 13.3333Z" fill="#F9F9F9"/>
</g>
<defs>
<clipPath id="clip0_78_13">
<rect width="16" height="16" fill="white"/>
</clipPath>
</defs>
</svg>
