<svg width="263" height="64" viewBox="0 0 263 64" fill="none" xmlns="http://www.w3.org/2000/svg">
<path d="M8 0H56L64 8V64H8V0Z" fill="#8B4E23"/>
<path d="M4 0H52L60 8V64H4V0Z" fill="#F0FFF0"/>
<path d="M0 0H48L56 8V64H0V0Z" fill="#8B4E23"/>
<path d="M18.112 48V18.096H26.848C28.576 18.096 30.08 18.272 31.36 18.624C32.64 18.976 33.696 19.488 34.528 20.16C35.36 20.8 35.968 21.568 36.352 22.464C36.768 23.36 36.976 24.352 36.976 25.44C36.976 26.336 36.8 27.232 36.448 28.128C36.128 28.992 35.648 29.776 35.008 30.48C34.368 31.152 33.568 31.664 32.608 32.016C33.44 32.336 34.192 32.752 34.864 33.264C35.568 33.776 36.16 34.368 36.64 35.04C37.12 35.68 37.488 36.384 37.744 37.152C38.032 37.92 38.176 38.704 38.176 39.504C38.176 40.784 37.936 41.952 37.456 43.008C37.008 44.032 36.32 44.928 35.392 45.696C34.464 46.432 33.28 47.008 31.84 47.424C30.4 47.808 28.72 48 26.8 48H18.112ZM22.144 44.544H27.376C28.688 44.544 29.824 44.368 30.784 44.016C31.776 43.664 32.544 43.104 33.088 42.336C33.632 41.568 33.904 40.576 33.904 39.36C33.904 38.24 33.664 37.264 33.184 36.432C32.704 35.568 31.936 34.896 30.88 34.416C29.824 33.904 28.384 33.648 26.56 33.648H22.144V44.544ZM22.144 30.336H26.368C28 30.336 29.296 30.144 30.256 29.76C31.216 29.376 31.888 28.848 32.272 28.176C32.688 27.472 32.896 26.704 32.896 25.872C32.896 25.232 32.784 24.656 32.56 24.144C32.336 23.6 31.984 23.136 31.504 22.752C31.056 22.336 30.448 22.016 29.68 21.792C28.912 21.568 27.984 21.456 26.896 21.456H22.144V30.336Z" fill="#F0FFF0"/>
<path d="M84 49.432C82.016 49.432 80.24 48.952 78.672 47.992C77.136 47 75.92 45.64 75.024 43.912C74.128 42.184 73.68 40.2 73.68 37.96C73.68 35.72 74.128 33.736 75.024 32.008C75.92 30.28 77.136 28.92 78.672 27.928C80.24 26.936 82.016 26.44 84 26.44C85.984 26.44 87.744 26.936 89.28 27.928C90.848 28.92 92.08 30.28 92.976 32.008C93.872 33.736 94.32 35.72 94.32 37.96C94.32 40.2 93.872 42.184 92.976 43.912C92.08 45.64 90.848 47 89.28 47.992C87.744 48.952 85.984 49.432 84 49.432ZM84 46.072C85.184 46.072 86.224 45.72 87.12 45.016C88.016 44.312 88.72 43.352 89.232 42.136C89.776 40.92 90.048 39.512 90.048 37.912C90.048 36.312 89.776 34.904 89.232 33.688C88.72 32.472 88.016 31.528 87.12 30.856C86.224 30.152 85.184 29.8 84 29.8C82.848 29.8 81.808 30.152 80.88 30.856C79.984 31.528 79.264 32.472 78.72 33.688C78.208 34.904 77.952 36.312 77.952 37.912C77.952 39.512 78.208 40.92 78.72 42.136C79.232 43.352 79.936 44.312 80.832 45.016C81.76 45.72 82.816 46.072 84 46.072Z" fill="#F0FFF0"/>
<path d="M108 49.432C106.016 49.432 104.24 48.952 102.672 47.992C101.136 47 99.92 45.64 99.024 43.912C98.128 42.184 97.68 40.2 97.68 37.96C97.68 35.72 98.128 33.736 99.024 32.008C99.92 30.28 101.136 28.92 102.672 27.928C104.24 26.936 106.016 26.44 108 26.44C109.984 26.44 111.744 26.936 113.28 27.928C114.848 28.92 116.08 30.28 116.976 32.008C117.872 33.736 118.32 35.72 118.32 37.96C118.32 40.2 117.872 42.184 116.976 43.912C116.08 45.64 114.848 47 113.28 47.992C111.744 48.952 109.984 49.432 108 49.432ZM108 46.072C109.184 46.072 110.224 45.72 111.12 45.016C112.016 44.312 112.72 43.352 113.232 42.136C113.776 40.92 114.048 39.512 114.048 37.912C114.048 36.312 113.776 34.904 113.232 33.688C112.72 32.472 112.016 31.528 111.12 30.856C110.224 30.152 109.184 29.8 108 29.8C106.848 29.8 105.808 30.152 104.88 30.856C103.984 31.528 103.264 32.472 102.72 33.688C102.208 34.904 101.952 36.312 101.952 37.912C101.952 39.512 102.208 40.92 102.72 42.136C103.232 43.352 103.936 44.312 104.832 45.016C105.76 45.72 106.816 46.072 108 46.072Z" fill="#F0FFF0"/>
<path d="M129.648 38.296L127.104 40.696V49H122.928V16.984H127.536V17.368C127.344 17.56 127.216 17.768 127.152 17.992C127.12 18.216 127.104 18.6 127.104 19.144V36.328L137.28 26.824C137.504 26.856 137.728 26.888 137.952 26.92C138.176 26.952 138.4 26.984 138.624 27.016C138.88 27.016 139.136 27.032 139.392 27.064C139.648 27.064 139.872 27.064 140.064 27.064H141.792L132.672 35.752L143.184 49L138.144 49.192L129.648 38.296Z" fill="#F0FFF0"/>
<path d="M157.584 49.528C155.952 49.528 154.448 49.24 153.072 48.664C151.728 48.088 150.56 47.288 149.568 46.264C148.576 45.24 147.792 44.04 147.216 42.664C146.672 41.256 146.4 39.72 146.4 38.056C146.4 36.424 146.672 34.904 147.216 33.496C147.792 32.088 148.576 30.872 149.568 29.848C150.56 28.792 151.728 27.976 153.072 27.4C154.448 26.792 155.936 26.488 157.536 26.488C159.424 26.488 161.088 26.856 162.528 27.592C164 28.328 165.184 29.336 166.08 30.616L163.632 33.16L163.344 33.496L163.056 33.208C163.056 32.952 163.008 32.712 162.912 32.488C162.816 32.232 162.576 31.912 162.192 31.528C161.52 30.92 160.784 30.504 159.984 30.28C159.216 30.024 158.32 29.896 157.296 29.896C156.432 29.896 155.6 30.088 154.8 30.472C154 30.824 153.28 31.352 152.64 32.056C152.032 32.728 151.536 33.56 151.152 34.552C150.8 35.544 150.624 36.648 150.624 37.864C150.624 39.08 150.8 40.184 151.152 41.176C151.536 42.136 152.048 42.984 152.688 43.72C153.328 44.424 154.08 44.984 154.944 45.4C155.84 45.784 156.784 45.976 157.776 45.976C158.48 45.976 159.168 45.88 159.84 45.688C160.512 45.496 161.152 45.208 161.76 44.824C162.368 44.408 162.928 43.896 163.44 43.288L165.792 45.976C164.672 47.192 163.408 48.088 162 48.664C160.592 49.24 159.12 49.528 157.584 49.528Z" fill="#F0FFF0"/>
<path d="M171.216 16.984H175.68V17.368C175.52 17.56 175.408 17.768 175.344 17.992C175.312 18.216 175.296 18.6 175.296 19.144V30.52C175.84 29.656 176.496 28.92 177.264 28.312C178.032 27.704 178.832 27.24 179.664 26.92C180.528 26.568 181.392 26.392 182.256 26.392C183.6 26.392 184.784 26.712 185.808 27.352C186.864 27.96 187.664 28.952 188.208 30.328C188.784 31.672 189.072 33.448 189.072 35.656V49H185.04V35.752C185.04 34.28 184.88 33.112 184.56 32.248C184.24 31.384 183.792 30.76 183.216 30.376C182.672 29.992 182.032 29.8 181.296 29.8C180.72 29.8 180.144 29.896 179.568 30.088C178.992 30.28 178.448 30.568 177.936 30.952C177.424 31.304 176.96 31.752 176.544 32.296C176.16 32.808 175.856 33.4 175.632 34.072C175.408 34.744 175.296 35.496 175.296 36.328V49H171.216V16.984Z" fill="#F0FFF0"/>
<path d="M205.056 49.48C203.456 49.48 201.984 49.24 200.64 48.76C199.328 48.248 198.176 47.512 197.184 46.552C196.224 45.592 195.488 44.392 194.976 42.952C194.464 41.512 194.208 39.88 194.208 38.056C194.208 36.2 194.464 34.552 194.976 33.112C195.52 31.672 196.256 30.456 197.184 29.464C198.112 28.472 199.2 27.72 200.448 27.208C201.696 26.664 203.024 26.392 204.432 26.392C205.68 26.392 206.864 26.616 207.984 27.064C209.104 27.48 210.064 28.12 210.864 28.984C211.696 29.848 212.352 30.952 212.832 32.296C213.312 33.608 213.552 35.16 213.552 36.952C213.552 37.24 213.536 37.56 213.504 37.912C213.504 38.232 213.488 38.52 213.456 38.776H198.144C198.208 40.088 198.432 41.224 198.816 42.184C199.232 43.112 199.76 43.88 200.4 44.488C201.04 45.064 201.76 45.496 202.56 45.784C203.392 46.072 204.272 46.216 205.2 46.216C205.936 46.216 206.624 46.136 207.264 45.976C207.936 45.816 208.56 45.56 209.136 45.208C209.712 44.856 210.24 44.424 210.72 43.912L212.928 46.024C212.288 46.792 211.552 47.448 210.72 47.992C209.92 48.504 209.04 48.872 208.08 49.096C207.152 49.352 206.144 49.48 205.056 49.48ZM198.288 35.656H209.472C209.472 34.696 209.344 33.848 209.088 33.112C208.832 32.376 208.48 31.736 208.032 31.192C207.584 30.648 207.024 30.248 206.352 29.992C205.712 29.704 204.992 29.56 204.192 29.56C203.456 29.56 202.768 29.688 202.128 29.944C201.488 30.168 200.896 30.536 200.352 31.048C199.84 31.56 199.392 32.2 199.008 32.968C198.656 33.704 198.416 34.6 198.288 35.656Z" fill="#F0FFF0"/>
<path d="M219.552 49V45.736H225.936V20.248H219.84V16.984H230.112V45.736H236.496V49H219.552Z" fill="#F0FFF0"/>
<path d="M247.392 30.184H242.64V26.92H247.392V25.288C247.392 23.304 247.76 21.688 248.496 20.44C249.264 19.16 250.288 18.216 251.568 17.608C252.848 17 254.272 16.696 255.84 16.696C257.28 16.696 258.608 16.952 259.824 17.464C261.072 17.944 262.112 18.696 262.944 19.72L261.024 22.648L260.784 23.032L260.448 22.84C260.384 22.584 260.304 22.328 260.208 22.072C260.112 21.816 259.888 21.512 259.536 21.16C258.992 20.712 258.464 20.408 257.952 20.248C257.44 20.056 256.8 19.96 256.032 19.96C255.136 19.96 254.336 20.136 253.632 20.488C252.928 20.84 252.384 21.4 252 22.168C251.616 22.936 251.424 23.96 251.424 25.24V26.92H258.432V30.184H251.424V49H247.392V30.184Z" fill="#F0FFF0"/>
</svg>
